# xmcd
# 
# Track frame offsets:
#     150
#     21512
#     42510
#     64885
#     81492
#     105372
#     125242
#     149627
#     171800
#     195072
#     215860
#     244012
# 
# Disc length: 3520
# 
# Revision: 3
# Processed by: cddbd v1.5.2PL0 Copyright (c) Steve Scherf et al.
# Submitted via: BonkEnc v1.0.8
# 
DISCID=b70dbe0c
DTITLE=中西保志 - It's only a Ballade
DYEAR=1995
DGENRE=JPop
TTITLE0=最後の雨
TTITLE1=想い出を閉じこめて
TTITLE2=千年前から見つめていた
TTITLE3=夜を数えて
TTITLE4=一日の終わりに
TTITLE5=LOVE TIDE
TTITLE6=愛が見えたとき
TTITLE7=だから 憶えている
TTITLE8=ひとりぼっちの夢じゃない
TTITLE9=君が微笑むなら
TTITLE10=LAST CALL
TTITLE11=歓送の歌
EXTD=YEAR: 1995.02.01
EXTT0=
EXTT1=
EXTT2=
EXTT3=
EXTT4=
EXTT5=
EXTT6=
EXTT7=
EXTT8=
EXTT9=
EXTT10=
EXTT11=
PLAYORDER=
